<?xml version="1.0" encoding="UTF-8"?>
<svg xmlns="http://www.w3.org/2000/svg" viewBox="0 0 200 200">
  <!-- Sfondo circolare con colore bordeaux più scuro -->
  <circle cx="100" cy="100" r="100" fill="#7f1d1d" />
  
  <!-- Sfondo circolare con gradiente bordeaux -->
  <circle cx="100" cy="100" r="95" fill="url(#grad1)" />
  
  <!-- Silhouette utente con cappello da chef -->
  <path d="M100 60c16.5 0 30 13.5 30 30s-13.5 30-30 30-30-13.5-30-30 13.5-30 30-30" fill="#fff"/>
  
  <!-- Cappello da chef -->
  <path d="M130 57c0 16.6-13.4 30-30 30s-30-13.4-30-30c0-5.5 1.5-10.7 4-15h52c2.5 4.3 4 9.5 4 15z" fill="#fff"/>
  <path d="M74 42h52c2 0 4 1.8 4 4s-2 4-4 4H74c-2 0-4-1.8-4-4s2-4 4-4z" fill="#fff"/>
  
  <!-- Corpo -->
  <path d="M140 190H60c0-25 18-45 40-45s40 20 40 45z" fill="#fff"/>
  
  <!-- Decorazione per cappello chef -->
  <path d="M74 46c0 0 14-8 26-8s26 8 26 8" stroke="#7f1d1d" stroke-width="2" fill="none" />
  
  <!-- Caratteristiche facciali stilizzate -->
  <circle cx="85" cy="75" r="4" fill="#333"/>
  <circle cx="115" cy="75" r="4" fill="#333"/>
  <path d="M90 88c3.3 5 16.7 5 20 0" stroke="#333" stroke-width="2" fill="none" />
  
  <!-- Dettagli camicia ristorante -->
  <path d="M100 145v-10" stroke="#7f1d1d" stroke-width="8" fill="none" />
  <path d="M80 155h40" stroke="#7f1d1d" stroke-width="2" fill="none" />
  
  <!-- Gradiente definizione -->
  <defs>
    <linearGradient id="grad1" x1="0%" y1="0%" x2="100%" y2="100%">
      <stop offset="0%" style="stop-color:#981b1b;stop-opacity:1" />
      <stop offset="100%" style="stop-color:#7f1d1d;stop-opacity:1" />
    </linearGradient>
  </defs>
</svg>