<?xml version="1.0" encoding="UTF-8"?>
<svg xmlns="http://www.w3.org/2000/svg" viewBox="0 0 200 200">
  <!-- Sfondo circolare con colore verde oliva più scuro -->
  <circle cx="100" cy="100" r="100" fill="#3f6212" />
  
  <!-- Sfondo circolare con gradiente verde oliva -->
  <circle cx="100" cy="100" r="95" fill="url(#grad1)" />
  
  <!-- Silhouette cameriere -->
  <path d="M100 60c16.5 0 30 13.5 30 30s-13.5 30-30 30-30-13.5-30-30 13.5-30 30-30" fill="#fff"/>
  
  <!-- Papillon -->
  <path d="M85 135h30v5h-30z" fill="#333"/>
  <path d="M90 130l20 0l-10 10z" fill="#333"/>
  <path d="M90 140l20 0l-10 -10z" fill="#333"/>
  
  <!-- Corpo con camicia -->
  <path d="M140 190H60c0-25 18-45 40-45s40 20 40 45z" fill="#fff"/>
  
  <!-- Grembiule -->
  <path d="M120 145H80v45h40z" fill="#ddd"/>
  <path d="M80 145c0 0 20 10 40 0" stroke="#ddd" stroke-width="5" fill="none"/>
  
  <!-- Caratteristiche facciali stilizzate -->
  <circle cx="85" cy="75" r="4" fill="#333"/>
  <circle cx="115" cy="75" r="4" fill="#333"/>
  <path d="M90 90c3.3 5 16.7 5 20 0" stroke="#333" stroke-width="2" fill="none" />
  
  <!-- Bordi grembiule -->
  <path d="M80 155h40" stroke="#bbb" stroke-width="1" fill="none" />
  <path d="M80 175h40" stroke="#bbb" stroke-width="1" fill="none" />
  
  <!-- Decoro grembiule - piccolo logo ristorante -->
  <text x="95" y="170" font-family="serif" font-size="10" text-anchor="middle" fill="#3f6212">DV</text>
  <circle cx="100" cy="165" r="12" stroke="#3f6212" stroke-width="1" fill="none" />
  
  <!-- Gradiente definizione -->
  <defs>
    <linearGradient id="grad1" x1="0%" y1="0%" x2="100%" y2="100%">
      <stop offset="0%" style="stop-color:#4d7c0f;stop-opacity:1" />
      <stop offset="100%" style="stop-color:#3f6212;stop-opacity:1" />
    </linearGradient>
  </defs>
</svg>